<svg xmlns="http://www.w3.org/2000/svg" viewBox="0 0 32 32" fill="none">
  <defs>
    <linearGradient id="fb" x1="4" y1="4" x2="28" y2="28">
      <stop stop-color="#0b1020"/>
      <stop offset="1" stop-color="#1e1b4b"/>
    </linearGradient>
    <linearGradient id="fs" x1="8" y1="6" x2="26" y2="28">
      <stop stop-color="#22d3ee"/>
      <stop offset="0.5" stop-color="#c4b5fd"/>
      <stop offset="1" stop-color="#f8fafc"/>
    </linearGradient>
  </defs>
  <rect width="32" height="32" rx="9" fill="url(#fb)"/>
  <g fill="url(#fs)">
    <path d="M16 5.5 18.2 13.5 26.5 16 18.2 18.5 16 26.5 13.8 18.5 5.5 16 13.8 13.5Z"/>
    <path opacity="0.92" transform="translate(6 7) scale(0.32)" d="M16 5.5 18.2 13.5 26.5 16 18.2 18.5 16 26.5 13.8 18.5 5.5 16 13.8 13.5Z"/>
    <path opacity="0.88" transform="translate(22 6) scale(0.28)" d="M16 5.5 18.2 13.5 26.5 16 18.2 18.5 16 26.5 13.8 18.5 5.5 16 13.8 13.5Z"/>
    <path opacity="0.85" transform="translate(20 22) scale(0.26)" d="M16 5.5 18.2 13.5 26.5 16 18.2 18.5 16 26.5 13.8 18.5 5.5 16 13.8 13.5Z"/>
  </g>
</svg>
